# xmcd
#
# Track frame offsets:
#	150
#	21000
#	39825
#	60675
#
# Disc length: 1057 seconds
#
# Revision: 9
# Processed by: cddbd v1.5.2PL0 Copyright (c) Steve Scherf et al.
# Submitted via: EasyCDDAExtractor 16.0.6.1
#
DISCID=26041f04
DTITLE=Whiteberry - かくれんぼ
DYEAR=2001
DGENRE=JPop
TTITLE0=かくれんぼ
TTITLE1=めざせポケモンマスター
TTITLE2=かくれんぼ (Instrumental)
TTITLE3=めざせポケモンマスター (Instrumental)
EXTD=YEAR: 2001
EXTT0=
EXTT1=
EXTT2=
EXTT3=
PLAYORDER=
